<svg width="12" height="10" viewBox="0 0 12 10" fill="none" xmlns="http://www.w3.org/2000/svg">
<g clip-path="url(#clip0_3_466)">
<path d="M10.9514 0.692081C11.0755 0.777637 11.15 0.918765 11.15 1.06944V7.48611C11.15 7.65989 11.0316 7.84705 10.854 7.91389L7.64568 9.13611C7.54829 9.1743 7.43943 9.17621 7.33822 9.14375L3.82624 7.97309L0.771448 9.13611C0.630702 9.18958 0.472386 9.17048 0.348254 9.08646C0.22416 9.00052 0.150024 8.8592 0.150024 8.70833V2.29166C0.150024 2.10069 0.267472 1.93073 0.445267 1.86331L3.65436 0.641092C3.75176 0.60347 3.86061 0.601178 3.96183 0.634599L7.47381 1.80507L10.5294 0.641092C10.6688 0.587428 10.8273 0.606526 10.9514 0.692081ZM1.06669 8.04375L3.35836 7.171V1.7346L1.06669 2.60677V8.04375ZM7.02502 2.62205L4.27502 1.70538V7.15573L7.02502 8.07239V2.62205ZM7.94169 8.04375L10.2334 7.171V1.7346L7.94169 2.60677V8.04375Z" fill="#1D74C5"/>
</g>
<defs>
<clipPath id="clip0_3_466">
<rect width="11" height="9.77778" fill="white" transform="translate(0.150024)"/>
</clipPath>
</defs>
</svg>
