<svg width="12" height="13" viewBox="0 0 12 13" fill="none" xmlns="http://www.w3.org/2000/svg">
<g clip-path="url(#clip0_3_454)">
<path d="M5.53786 3.62034C5.53786 3.31907 5.78023 3.07669 6.08151 3.07669C6.38278 3.07669 6.62515 3.31907 6.62515 3.62034V6.41107L8.55737 7.6977C8.80654 7.86533 8.8745 8.20284 8.68875 8.45201C8.54151 8.70118 8.204 8.76914 7.95483 8.58339L5.78023 7.13367C5.62847 7.05212 5.53786 6.88223 5.53786 6.68063V3.62034ZM6.08151 0.9021C9.2845 0.9021 11.8804 3.49802 11.8804 6.70101C11.8804 9.90401 9.2845 12.4999 6.08151 12.4999C2.87851 12.4999 0.282593 9.90401 0.282593 6.70101C0.282593 3.49802 2.87851 0.9021 6.08151 0.9021ZM1.36989 6.70101C1.36989 9.30373 3.47879 11.4126 6.08151 11.4126C8.68422 11.4126 10.7931 9.30373 10.7931 6.70101C10.7931 4.0983 8.68422 1.9894 6.08151 1.9894C3.47879 1.9894 1.36989 4.0983 1.36989 6.70101Z" fill="#1D74C5"/>
</g>
<defs>
<clipPath id="clip0_3_454">
<rect width="11.5978" height="11.5978" fill="white" transform="translate(0.282593 0.9021)"/>
</clipPath>
</defs>
</svg>
