<svg width="12" height="12" viewBox="0 0 12 12" fill="none" xmlns="http://www.w3.org/2000/svg">
<g clip-path="url(#clip0_3_462)">
<path d="M4.01791 0.568126C3.84349 0.146799 3.38365 -0.0774561 2.9442 0.0425995L0.950827 0.586248C0.556682 0.694977 0.282593 1.05288 0.282593 1.46061C0.282593 7.06472 4.82659 11.6087 10.4307 11.6087C10.8384 11.6087 11.1963 11.3346 11.3051 10.9405L11.8487 8.9471C11.9688 8.50765 11.7445 8.04782 11.3232 7.8734L9.14859 6.96732C8.77936 6.81328 8.35124 6.91975 8.0998 7.23008L7.18466 8.34682C5.58996 7.59251 4.29879 6.30135 3.54448 4.70665L4.66123 3.79377C4.97156 3.54007 5.07802 3.11421 4.92399 2.74498L4.01791 0.570391V0.568126Z" fill="#1D74C5"/>
</g>
<defs>
<clipPath id="clip0_3_462">
<rect width="11.5978" height="11.5978" fill="white" transform="translate(0.282593 0.0108643)"/>
</clipPath>
</defs>
</svg>
