<svg width="12" height="14" viewBox="0 0 12 14" fill="none" xmlns="http://www.w3.org/2000/svg">
<g clip-path="url(#clip0_3_458)">
<path d="M10.1433 2.91578C9.05863 1.82848 7.61408 1.23047 6.07892 1.23047C2.91023 1.23047 0.33178 3.80891 0.33178 6.97761C0.33178 7.98983 0.595838 8.97875 1.09806 9.85117L0.282593 12.8283L3.32961 12.0284C4.16838 12.4866 5.11329 12.7273 6.07633 12.7273H6.07892C9.24502 12.7273 11.8804 10.1489 11.8804 6.9802C11.8804 5.44504 11.228 4.00307 10.1433 2.91578ZM6.07892 11.7591C5.21944 11.7591 4.37808 11.5287 3.64544 11.0938L3.47199 10.9902L1.66501 11.464L2.14653 9.70102L2.03262 9.51981C1.55369 8.7587 1.30258 7.8811 1.30258 6.97761C1.30258 4.3448 3.44611 2.20127 6.08151 2.20127C7.35778 2.20127 8.5564 2.69832 9.4573 3.60181C10.3582 4.5053 10.9122 5.70392 10.9096 6.9802C10.9096 9.61559 8.71173 11.7591 6.07892 11.7591ZM8.69878 8.1814C8.5564 8.10891 7.84966 7.76201 7.71763 7.71541C7.5856 7.66623 7.48981 7.64293 7.39403 7.7879C7.29824 7.93287 7.02383 8.25388 6.9384 8.35226C6.85556 8.44804 6.77013 8.46099 6.62774 8.3885C5.78379 7.96653 5.22979 7.63516 4.6732 6.67989C4.52564 6.42619 4.82076 6.44431 5.09517 5.89549C5.14177 5.7997 5.11847 5.71686 5.08223 5.64437C5.04599 5.57189 4.75863 4.86514 4.63954 4.57779C4.52305 4.2982 4.40396 4.33703 4.31594 4.33185C4.2331 4.32667 4.13732 4.32667 4.04153 4.32667C3.94575 4.32667 3.79042 4.36292 3.65839 4.5053C3.52636 4.65027 3.15616 4.99717 3.15616 5.70392C3.15616 6.41066 3.67133 7.0941 3.74123 7.18989C3.81372 7.28567 4.75345 8.7354 6.19541 9.3593C7.10667 9.7528 7.46393 9.78645 7.91955 9.71915C8.19656 9.67772 8.76868 9.37225 8.88777 9.0357C9.00685 8.69916 9.00685 8.4118 8.97061 8.35226C8.93695 8.28754 8.84117 8.2513 8.69878 8.1814Z" fill="#1D74C5"/>
</g>
<defs>
<clipPath id="clip0_3_458">
<rect width="11.5978" height="13.2547" fill="white" transform="translate(0.282593 0.4021)"/>
</clipPath>
</defs>
</svg>
