<svg width="16" height="19" viewBox="0 0 16 19" fill="none" xmlns="http://www.w3.org/2000/svg">
<path d="M6.79063 0.19892C7.22029 -0.0663068 7.78275 -0.0663068 8.21241 0.19892L8.90768 0.62401C9.14204 0.765707 9.41546 0.834739 9.69278 0.820206L10.5248 0.772974C11.0403 0.743908 11.5247 1.0055 11.7551 1.43422L12.1301 2.12818C12.2551 2.3607 12.4582 2.546 12.7043 2.66226L13.4582 3.01469C13.9191 3.22905 14.2003 3.67957 14.169 4.15916L14.1183 4.93304C14.1026 5.191 14.1769 5.44896 14.3292 5.66333L14.7901 6.31004C15.0752 6.7097 15.0752 7.23289 14.7901 7.63255L14.3292 8.2829C14.1769 8.50089 14.1026 8.75522 14.1183 9.01318L14.169 9.78706C14.2003 10.2667 13.9191 10.7172 13.4582 10.9315L12.7121 11.2803C12.4621 11.3966 12.2629 11.5855 12.1379 11.8144L11.7591 12.5156C11.5286 12.9444 11.0443 13.206 10.5287 13.1769L9.69669 13.1297C9.41936 13.1151 9.14204 13.1842 8.91158 13.3258L8.21632 13.7546C7.78666 14.0198 7.2242 14.0198 6.79454 13.7546L6.09537 13.3258C5.86101 13.1842 5.58759 13.1151 5.31026 13.1297L4.47829 13.1769C3.96269 13.206 3.47835 12.9444 3.2479 12.5156L2.87292 11.8217C2.74793 11.5892 2.54482 11.4039 2.29874 11.2876L1.54489 10.9352C1.08398 10.7208 0.802748 10.2703 0.833996 9.7907L0.884774 9.01681C0.900398 8.75885 0.826184 8.50089 0.673851 8.28653L0.21685 7.63618C-0.0682875 7.23652 -0.0682875 6.71334 0.21685 6.31368L0.673851 5.66696C0.826184 5.44896 0.900398 5.19464 0.884774 4.93668L0.833996 4.16279C0.802748 3.68321 1.08398 3.23268 1.54489 3.01832L2.29093 2.66953C2.54091 2.54963 2.74403 2.3607 2.86902 2.12818L3.24399 1.43422C3.47445 1.0055 3.95879 0.743908 4.47438 0.772974L5.30636 0.820206C5.58368 0.834739 5.86101 0.765707 6.09146 0.62401L6.79063 0.19892ZM10.6263 6.97493C10.6263 5.36903 9.22797 4.06833 7.50152 4.06833C5.77507 4.06833 4.37673 5.36903 4.37673 6.97493C4.37673 8.58082 5.77507 9.88153 7.50152 9.88153C9.22797 9.88153 10.6263 8.58082 10.6263 6.97493ZM0.0527982 16.0508L1.73628 12.3267C1.74409 12.3303 1.748 12.334 1.7519 12.3412L2.12688 13.0352C2.58388 13.8781 3.53304 14.3904 4.54859 14.3359L5.38057 14.2887C5.38838 14.2887 5.4001 14.2887 5.40791 14.2959L6.10318 14.7246C6.30238 14.8445 6.51331 14.939 6.73204 15.0044L5.26339 18.2489C5.17355 18.4487 4.97435 18.5832 4.74389 18.6013C4.51344 18.6195 4.2908 18.5214 4.16581 18.3397L2.90808 16.5485L0.716817 16.8501C0.494175 16.8792 0.271534 16.7956 0.130918 16.6321C-0.00969763 16.4686 -0.0370396 16.2433 0.0488922 16.0508H0.0527982ZM9.73965 18.2453L8.271 15.0044C8.48974 14.939 8.70066 14.8482 8.89987 14.7246L9.59513 14.2959C9.60294 14.2923 9.61076 14.2887 9.62247 14.2887L10.4545 14.3359C11.47 14.3904 12.4192 13.8781 12.8762 13.0352L13.2511 12.3412C13.255 12.334 13.259 12.3303 13.2668 12.3267L14.9542 16.0508C15.0401 16.2433 15.0088 16.465 14.8721 16.6321C14.7354 16.7992 14.5089 16.8828 14.2862 16.8501L12.095 16.5485L10.8372 18.3361C10.7122 18.5178 10.4896 18.6159 10.2592 18.5977C10.0287 18.5795 9.82949 18.4415 9.73965 18.2453V18.2453Z" fill="#1D74C5"/>
</svg>
