<svg width="29" height="19" viewBox="0 0 29 19" fill="none" xmlns="http://www.w3.org/2000/svg">
<path d="M8.21429 2.32543C8.21429 3.60857 7.09375 4.65087 5.71429 4.65087C4.33482 4.65087 3.21429 3.60857 3.21429 2.32543C3.21429 1.04229 4.33482 0 5.71429 0C7.09375 0 8.21429 1.04229 8.21429 2.32543ZM2.85714 8.87402C2.41071 9.33911 2.14286 9.95784 2.14286 10.6306C2.14286 11.3033 2.41071 11.922 2.85714 12.3871V8.87402ZM9.30357 6.82681C7.97768 7.91893 7.14286 9.51767 7.14286 11.295C7.14286 12.7193 7.67857 14.0273 8.57143 15.053V15.9458C8.57143 16.6808 7.93304 17.2747 7.14286 17.2747H4.28571C3.49554 17.2747 2.85714 16.6808 2.85714 15.9458V14.8329C1.16964 14.0855 0 12.4867 0 10.6306C0 8.06012 2.23661 5.97969 5 5.97969H6.42857C7.5 5.97969 8.49107 6.29113 9.30357 6.82266V6.82681ZM20 15.9458V15.053C20.8929 14.0273 21.4286 12.7193 21.4286 11.295C21.4286 9.51767 20.5938 7.91893 19.2679 6.82266C20.0804 6.29113 21.0714 5.97969 22.1429 5.97969H23.5714C26.3348 5.97969 28.5714 8.06012 28.5714 10.6306C28.5714 12.4867 27.4018 14.0855 25.7143 14.8329V15.9458C25.7143 16.6808 25.0759 17.2747 24.2857 17.2747H21.4286C20.6384 17.2747 20 16.6808 20 15.9458ZM25.3571 2.32543C25.3571 3.60857 24.2366 4.65087 22.8571 4.65087C21.4777 4.65087 20.3571 3.60857 20.3571 2.32543C20.3571 1.04229 21.4777 0 22.8571 0C24.2366 0 25.3571 1.04229 25.3571 2.32543ZM25.7143 8.87402V12.3912C26.1607 11.922 26.4286 11.3074 26.4286 10.6347C26.4286 9.96199 26.1607 9.34326 25.7143 8.87817V8.87402ZM14.2857 5.31528C12.7098 5.31528 11.4286 4.12349 11.4286 2.65764C11.4286 1.19178 12.7098 0 14.2857 0C15.8616 0 17.1429 1.19178 17.1429 2.65764C17.1429 4.12349 15.8616 5.31528 14.2857 5.31528ZM10.7143 11.295C10.7143 11.9677 10.9821 12.5823 11.4286 13.0515V9.53843C10.9821 10.0077 10.7143 10.6222 10.7143 11.295ZM17.1429 9.53843V13.0556C17.5893 12.5864 17.8571 11.9718 17.8571 11.2991C17.8571 10.6264 17.5893 10.0077 17.1429 9.54258V9.53843ZM20 11.295C20 13.1512 18.8304 14.7499 17.1429 15.4974V17.2747C17.1429 18.0097 16.5045 18.6035 15.7143 18.6035H12.8571C12.067 18.6035 11.4286 18.0097 11.4286 17.2747V15.4974C9.74107 14.7499 8.57143 13.1512 8.57143 11.295C8.57143 8.72453 10.808 6.6441 13.5714 6.6441H15C17.7634 6.6441 20 8.72453 20 11.295Z" fill="black"/>
</svg>
