<svg width="40" height="19" viewBox="0 0 40 19" fill="none" xmlns="http://www.w3.org/2000/svg">
<path d="M20 13.9526C22.7625 13.9526 25 11.8713 25 9.30173C25 6.73213 22.7625 4.65087 20 4.65087C17.2375 4.65087 15 6.73213 15 9.30173C15 11.8713 17.2375 13.9526 20 13.9526ZM29.8 11.1621C28.875 15.406 24.8375 18.6035 20 18.6035C15.1625 18.6035 11.125 15.406 10.2 11.1621H2C0.89375 11.1621 0 10.3307 0 9.30173C0 8.27273 0.89375 7.44139 2 7.44139H10.2C11.125 3.19747 15.1625 0 20 0C24.8375 0 28.875 3.19747 29.8 7.44139H38C39.1063 7.44139 40 8.27273 40 9.30173C40 10.3307 39.1063 11.1621 38 11.1621H29.8Z" fill="black"/>
</svg>
