<svg width="25" height="19" viewBox="0 0 25 19" fill="none" xmlns="http://www.w3.org/2000/svg">
<path d="M13.7161 0.174442C13.8411 0.101786 13.9739 0.0545599 14.1067 0.0254976C14.2902 -0.0108304 14.4816 -0.00719759 14.6573 0.0291304C14.9581 0.0945206 15.2354 0.265262 15.415 0.52319L20.0977 7.05495C20.4414 7.53085 20.621 8.09393 20.621 8.66791V11.338C20.621 11.5887 20.7929 11.8103 21.0467 11.8902L24.1399 12.8493C24.6515 13.0055 24.9952 13.4487 24.9952 13.95V17.4375C24.9952 17.7971 24.8156 18.1386 24.507 18.3602C24.1985 18.5818 23.8001 18.6545 23.4252 18.56L16.8327 16.9253C14.6456 16.384 13.1225 14.5385 13.1225 12.4315V8.13753C13.1225 7.49452 13.681 6.97503 14.3722 6.97503C15.0635 6.97503 15.622 7.49452 15.622 8.13753V11.0438C15.622 11.3634 15.9032 11.625 16.2469 11.625C16.5906 11.625 16.8718 11.3634 16.8718 11.0438V7.95952C16.8718 7.70522 16.8015 7.45819 16.6648 7.24023L13.2904 1.74744C13.224 1.63846 13.1772 1.52584 13.1498 1.40959C13.1108 1.23885 13.1108 1.06084 13.1537 0.897368C13.2279 0.606745 13.4193 0.345183 13.7122 0.174442H13.7161ZM11.2791 0.174442C11.572 0.341551 11.7634 0.606745 11.8376 0.897368C11.8805 1.06448 11.8844 1.23885 11.8415 1.40959C11.8141 1.52584 11.7673 1.63846 11.7009 1.74744L8.33043 7.24023C8.19374 7.45819 8.12344 7.70886 8.12344 7.95952V11.0438C8.12344 11.3634 8.40464 11.625 8.74832 11.625C9.09201 11.625 9.3732 11.3634 9.3732 11.0438V8.13753C9.3732 7.49452 9.93169 6.97503 10.623 6.97503C11.3142 6.97503 11.8727 7.49452 11.8727 8.13753V12.4351C11.8727 14.5421 10.3496 16.384 8.1625 16.9289L1.57392 18.5636C1.19899 18.6581 0.796722 18.5818 0.492093 18.3638C0.187464 18.1459 0 17.8008 0 17.4375V13.95C0 13.4487 0.343684 13.0055 0.855305 12.8456L3.94846 11.8866C4.20232 11.8066 4.37416 11.585 4.37416 11.3344V8.66428C4.37416 8.0903 4.55772 7.53085 4.8975 7.05132L9.57629 0.526823C9.75594 0.268895 10.0332 0.0981534 10.334 0.0327631C10.5136 -0.00719759 10.7011 -0.0108304 10.8846 0.0291304C11.0213 0.0581927 11.1541 0.105419 11.2752 0.178075L11.2791 0.174442Z" fill="#1D74C5"/>
</svg>
