<svg width="36" height="36" viewBox="0 0 36 36" fill="none" xmlns="http://www.w3.org/2000/svg">
<g clip-path="url(#clip0_3_401)">
<path d="M11.5945 1.72981C11.0531 0.421996 9.62578 -0.274098 8.26172 0.098558L2.07422 1.78606C0.850781 2.12356 0 3.2345 0 4.50012C0 21.8954 14.1047 36.0001 31.5 36.0001C32.7656 36.0001 33.8766 35.1493 34.2141 33.9259L35.9016 27.7384C36.2742 26.3743 35.5781 24.947 34.2703 24.4056L27.5203 21.5931C26.3742 21.115 25.0453 21.4454 24.2648 22.4087L21.4242 25.8751C16.4742 23.5337 12.4664 19.5259 10.125 14.5759L13.5914 11.7423C14.5547 10.9548 14.8852 9.63293 14.407 8.48684L11.5945 1.73684V1.72981Z" fill="#1D74C5"/>
</g>
<defs>
<clipPath id="clip0_3_401">
<rect width="36" height="36" fill="white"/>
</clipPath>
</defs>
</svg>
